<svg id="Calque_1" data-name="Calque 1" xmlns="http://www.w3.org/2000/svg" viewBox="0 0 1190.55 841.89"><defs><style>.cls-1{fill:#fff;}.cls-2{fill:#171c48;}.cls-3{fill:#1acecf;}</style></defs><circle class="cls-1" cx="1044.47" cy="431.63" r="115.43"/><path class="cls-2" d="M200.31,318.56v26.83a10,10,0,0,1-10,10H133.4V544.71a10,10,0,0,1-10,10H94.91a10,10,0,0,1-10-10V355.39H30.33a10,10,0,0,1-10-10V318.56a10,10,0,0,1,10-10h160A10,10,0,0,1,200.31,318.56Z"/><path class="cls-2" d="M408,318.56v26.83a10,10,0,0,1-10,10H288.58v52.5h62.77a10,10,0,0,1,10,10v26.82a10,10,0,0,1-10,10H288.58v53.17H402.65a10,10,0,0,1,10,10v26.83a10,10,0,0,1-10,10H263.51a23.42,23.42,0,0,1-23.43-23.42V332a23.43,23.43,0,0,1,23.43-23.43H398A10,10,0,0,1,408,318.56Z"/><path class="cls-2" d="M679,548.44c0,3.46-2.28,6.26-5.1,6.26H635.12c-2.82,0-5.1-2.8-5.1-6.26V432.11l-61.66,72.18a4.8,4.8,0,0,1-8.29,0L501,432.11V548.44c0,3.46-2.28,6.26-5.1,6.26H458.51c-2.82,0-5.11-2.8-5.11-6.26V319.85a10,10,0,0,1,18-6l93.37,119,96.26-118.08A10,10,0,0,1,679,320.93Z"/><path class="cls-2" d="M870.26,330.8Q895,353,895,391.5a100.59,100.59,0,0,1-8.53,41.3Q878,452,858.72,464.41t-49.66,12.37H774.28v67.6A10.33,10.33,0,0,1,764,554.7H736.11a10.32,10.32,0,0,1-10.33-10.32V318.56a10,10,0,0,1,10-10h64.58Q845.51,308.56,870.26,330.8Zm-23.75,62c0-18.29-14-37.45-37.45-37.45H774.28v74.24h34.44C828.55,429.63,846.51,416,846.51,392.84Z"/><path class="cls-3" d="M935.61,369.43a127.65,127.65,0,0,1,45.82-46.32,122.78,122.78,0,0,1,125.41,0A130.37,130.37,0,0,1,1153,369.43a122.78,122.78,0,0,1,0,125.41,128.36,128.36,0,0,1-46.15,45.65,125.16,125.16,0,0,1-125.58,0,126.14,126.14,0,0,1-45.65-45.65,124.91,124.91,0,0,1,0-125.41Zm81,128.58L1108.2,443a12.8,12.8,0,0,0,0-21.92l-92.12-55.6a12.8,12.8,0,0,0-19.41,11l.54,110.65A12.8,12.8,0,0,0,1016.62,498Z"/></svg>